<svg id="visual" viewBox="0 0 900 600" width="900" height="600" xmlns="http://www.w3.org/2000/svg" xmlns:xlink="http://www.w3.org/1999/xlink" version="1.1"><path d="M0 61L129 61L129 73L257 73L257 43L386 43L386 67L514 67L514 67L643 67L643 55L771 55L771 49L900 49L900 49L900 0L900 0L771 0L771 0L643 0L643 0L514 0L514 0L386 0L386 0L257 0L257 0L129 0L129 0L0 0Z" fill="#52cdac"></path><path d="M0 97L129 97L129 127L257 127L257 85L386 85L386 115L514 115L514 121L643 121L643 91L771 91L771 85L900 85L900 85L900 47L900 47L771 47L771 53L643 53L643 65L514 65L514 65L386 65L386 41L257 41L257 71L129 71L129 59L0 59Z" fill="#2ac0b3"></path><path d="M0 127L129 127L129 163L257 163L257 121L386 121L386 151L514 151L514 157L643 157L643 121L771 121L771 115L900 115L900 121L900 83L900 83L771 83L771 89L643 89L643 119L514 119L514 113L386 113L386 83L257 83L257 125L129 125L129 95L0 95Z" fill="#00b2b7"></path><path d="M0 163L129 163L129 187L257 187L257 145L386 145L386 187L514 187L514 193L643 193L643 157L771 157L771 151L900 151L900 157L900 119L900 113L771 113L771 119L643 119L643 155L514 155L514 149L386 149L386 119L257 119L257 161L129 161L129 125L0 125Z" fill="#00a4b8"></path><path d="M0 217L129 217L129 247L257 247L257 223L386 223L386 265L514 265L514 241L643 241L643 241L771 241L771 259L900 259L900 259L900 155L900 149L771 149L771 155L643 155L643 191L514 191L514 185L386 185L386 143L257 143L257 185L129 185L129 161L0 161Z" fill="#0095b5"></path><path d="M0 253L129 253L129 289L257 289L257 265L386 265L386 313L514 313L514 283L643 283L643 277L771 277L771 289L900 289L900 301L900 257L900 257L771 257L771 239L643 239L643 239L514 239L514 263L386 263L386 221L257 221L257 245L129 245L129 215L0 215Z" fill="#0085af"></path><path d="M0 385L129 385L129 415L257 415L257 433L386 433L386 409L514 409L514 427L643 427L643 427L771 427L771 415L900 415L900 433L900 299L900 287L771 287L771 275L643 275L643 281L514 281L514 311L386 311L386 263L257 263L257 287L129 287L129 251L0 251Z" fill="#0076a6"></path><path d="M0 529L129 529L129 523L257 523L257 529L386 529L386 529L514 529L514 523L643 523L643 523L771 523L771 553L900 553L900 541L900 431L900 413L771 413L771 425L643 425L643 425L514 425L514 407L386 407L386 431L257 431L257 413L129 413L129 383L0 383Z" fill="#06679c"></path><path d="M0 565L129 565L129 565L257 565L257 553L386 553L386 553L514 553L514 565L643 565L643 559L771 559L771 577L900 577L900 571L900 539L900 551L771 551L771 521L643 521L643 521L514 521L514 527L386 527L386 527L257 527L257 521L129 521L129 527L0 527Z" fill="#1c5791"></path><path d="M0 601L129 601L129 601L257 601L257 601L386 601L386 601L514 601L514 601L643 601L643 601L771 601L771 601L900 601L900 601L900 569L900 575L771 575L771 557L643 557L643 563L514 563L514 551L386 551L386 551L257 551L257 563L129 563L129 563L0 563Z" fill="#294783"></path></svg>